<svg width="1024" height="1024" viewBox="0 0 1024 1024" fill="none" xmlns="http://www.w3.org/2000/svg">
<g clip-path="url(#clip0_226_91)">
<g clip-path="url(#clip1_226_91)">
<mask id="mask0_226_91" style="mask-type:luminance" maskUnits="userSpaceOnUse" x="25" y="25" width="974" height="974">
<path d="M980.678 481.807L572.964 46.3241C548.619 20.323 507.808 18.9789 481.807 43.3221L46.3236 451.035C20.3225 475.378 18.9782 516.192 43.3214 542.193L451.035 977.676C475.377 1003.68 516.189 1005.02 542.192 980.679L977.676 572.965C1003.68 548.622 1005.02 507.808 980.678 481.807Z" fill="white"/>
</mask>
<g mask="url(#mask0_226_91)">
<path fill-rule="evenodd" clip-rule="evenodd" d="M859.466 352.34L694.176 175.791L517.63 341.082L682.917 517.628L859.466 352.34ZM859.466 352.34L1024.76 528.888L848.211 694.176L671.662 859.464L506.374 682.918L682.917 517.628L859.466 352.34Z" fill="#3271A0"/>
<path d="M506.372 682.918L341.084 506.372L164.536 671.66L329.826 848.209L506.372 682.918Z" fill="#3271A0"/>
<path fill-rule="evenodd" clip-rule="evenodd" d="M341.08 506.372L506.368 682.918L329.822 848.209L164.532 671.66L341.08 506.372ZM506.368 682.918L671.659 859.467L495.11 1024.75L329.822 848.209L506.368 682.918Z" fill="#5699D1"/>
<path fill-rule="evenodd" clip-rule="evenodd" d="M694.176 175.792L528.885 -0.755005L352.339 164.535L517.627 341.082L694.176 175.792ZM517.627 341.082L352.339 164.535L175.792 329.823L-0.755859 495.114L164.533 671.66L341.081 506.372L517.627 341.082Z" fill="#6EB2EF"/>
</g>
</g>
</g>
<defs>
<clipPath id="clip0_226_91">
<rect width="1024" height="1024" fill="white"/>
</clipPath>
<clipPath id="clip1_226_91">
<rect width="1024" height="1024" fill="white"/>
</clipPath>
</defs>
</svg>
